# xmcd CD database file
#
# Track frame offsets:
#	150
#	4301
#	13310
#	44306
#	50988
#	60601
#	72959
#	79267
#	99065
#	104909
#	118408
#	130550
#	138690
#	163649
#	171638
#	184533
#
# Disc length: 2639 seconds
#
# Revision: 0
# Processed by: cddbd v1.5.1PL0 Copyright (c) Steve Scherf et al.
# Submitted via: Feurio! 1.67 - http://www.feurio.com
#
DISCID=ed0a4d10
DTITLE=Wommy Wonder - ... des klingt so!
DYEAR=1900
DGENRE=
TTITLE0=Intro (scheiße)
TTITLE1=Hallo, grüß Gott! (kotz)
TTITLE2=Plauderei (schwachsinn)
TTITLE3=Wir sind's - die Fisslers! (dämlichers)
TTITLE4=Plauderei mit Marlies and Helen
TTITLE5=Kirchheim/Teck - eine "Zugnummer" (na toll)
TTITLE6=Meditation (dumm)
TTITLE7=Reflexionen (nicht fähig)
TTITLE8=Intro
TTITLE9=Albino and Romina Bauer - ganz privat (wie primitiv!)
TTITLE10=Medley 1: Jankerl - Schmankerl (unnütz!)
TTITLE11=Medley 2: Herzen in Terzen (jesus!)
TTITLE12=Nur für den Augenblick (Abschminke)
TTITLE13=Conférence
TTITLE14=Die Geschichte von den drei Frauen
TTITLE15=Trennung (HURRA!)
EXTD=
EXTT0=
EXTT1=
EXTT2=
EXTT3=
EXTT4=
EXTT5=
EXTT6=
EXTT7=
EXTT8=
EXTT9=
EXTT10=
EXTT11=
EXTT12=
EXTT13=
EXTT14=
EXTT15=
PLAYORDER=
